<svg width="24" height="24" viewBox="0 0 24 24" fill="none" xmlns="http://www.w3.org/2000/svg">
<path fill-rule="evenodd" clip-rule="evenodd" d="M13 3C12.1716 3 11.5 3.67157 11.5 4.5H10H8H6C3.79086 4.5 2 6.29086 2 8.5V16.5C2 18.7091 3.79086 20.5 6 20.5H18C20.2091 20.5 22 18.7091 22 16.5V8.5C22 6.46008 20.473 4.77682 18.4997 4.53091C18.4999 4.52063 18.5 4.51033 18.5 4.5C18.5 3.67157 17.8284 3 17 3H13ZM20 8.5C20 7.39543 19.1046 6.5 18 6.5H16H14H10H8H6C4.89543 6.5 4 7.39543 4 8.5V16.5C4 17.6046 4.89543 18.5 6 18.5H18C19.1046 18.5 20 17.6046 20 16.5V8.5ZM12 14.5C13.1046 14.5 14 13.6046 14 12.5C14 11.3954 13.1046 10.5 12 10.5C10.8954 10.5 10 11.3954 10 12.5C10 13.6046 10.8954 14.5 12 14.5ZM12 16.5C14.2091 16.5 16 14.7091 16 12.5C16 10.2909 14.2091 8.5 12 8.5C9.79086 8.5 8 10.2909 8 12.5C8 14.7091 9.79086 16.5 12 16.5Z" fill="#333333"/>
</svg>
