<svg width="12" height="12" viewBox="0 0 12 12" fill="none" xmlns="http://www.w3.org/2000/svg">
<path fill-rule="evenodd" clip-rule="evenodd" d="M11.7046 0.295367C12.0985 0.689189 12.0985 1.3277 11.7046 1.72153L7.42635 5.99981L11.705 10.2785C12.0988 10.6723 12.0988 11.3108 11.705 11.7046C11.3112 12.0985 10.6727 12.0985 10.2789 11.7046L6.00019 7.42597L1.72152 11.7046C1.3277 12.0985 0.689189 12.0985 0.295367 11.7046C-0.0984557 11.3108 -0.0984557 10.6723 0.295367 10.2785L4.57403 5.99981L0.295752 1.72153C-0.0980711 1.3277 -0.0980711 0.689189 0.295751 0.295366C0.689574 -0.0984564 1.32809 -0.0984564 1.72191 0.295366L6.00019 4.57365L10.2785 0.295367C10.6723 -0.0984559 11.3108 -0.0984559 11.7046 0.295367Z" fill="#333333"/>
</svg>
