<svg width="24" height="24" viewBox="0 0 24 24" fill="none" xmlns="http://www.w3.org/2000/svg">
<path fill-rule="evenodd" clip-rule="evenodd" d="M6 6C6 5.44772 6.44772 5 7 5H14C14.2568 5 14.5037 5.09878 14.6897 5.27586L17.6897 8.13301C17.8878 8.32175 18 8.58347 18 8.85714V18C18 18.5523 17.5523 19 17 19H7C6.44772 19 6 18.5523 6 18V6ZM7 3C5.34315 3 4 4.34315 4 6V18C4 19.6569 5.34315 21 7 21H17C18.6569 21 20 19.6569 20 18V8.85714C20 8.03611 19.6635 7.25096 19.069 6.68473L16.069 3.82759C15.5111 3.29632 14.7703 3 14 3H7ZM9.00098 15C8.44869 15 8.00098 15.4477 8.00098 16C8.00098 16.5523 8.44869 17 9.00098 17H15.001C15.5533 17 16.001 16.5523 16.001 16C16.001 15.4477 15.5533 15 15.001 15H9.00098ZM8.00098 12C8.00098 11.4477 8.44869 11 9.00098 11H15.001C15.5533 11 16.001 11.4477 16.001 12C16.001 12.5523 15.5533 13 15.001 13H9.00098C8.44869 13 8.00098 12.5523 8.00098 12Z" fill="#333333"/>
</svg>
