<svg width="24" height="24" viewBox="0 0 24 24" fill="none" xmlns="http://www.w3.org/2000/svg">
<path fill-rule="evenodd" clip-rule="evenodd" d="M6 4C4.89543 4 4 4.89543 4 6V9C4 10.1046 4.89543 11 6 11H9C10.1046 11 11 10.1046 11 9V6C11 4.89543 10.1046 4 9 4H6ZM6 6H9V9H6V6ZM6 13C4.89543 13 4 13.8954 4 15V18C4 19.1046 4.89543 20 6 20H9C10.1046 20 11 19.1046 11 18V15C11 13.8954 10.1046 13 9 13H6ZM6 15H9V18H6V15ZM13 15C13 13.8954 13.8954 13 15 13H18C19.1046 13 20 13.8954 20 15V18C20 19.1046 19.1046 20 18 20H15C13.8954 20 13 19.1046 13 18V15ZM18 15H15V18H18V15ZM15 4C13.8954 4 13 4.89543 13 6V9C13 10.1046 13.8954 11 15 11H18C19.1046 11 20 10.1046 20 9V6C20 4.89543 19.1046 4 18 4H15ZM15 6H18V9H15V6Z" fill="#333333"/>
</svg>
