<svg width="24" height="24" viewBox="0 0 24 24" fill="none" xmlns="http://www.w3.org/2000/svg">
<path fill-rule="evenodd" clip-rule="evenodd" d="M3 6C3 4.34315 4.34315 3 6 3H18C19.6569 3 21 4.34315 21 6V18C21 19.6569 19.6569 21 18 21H6C4.34315 21 3 19.6569 3 18V6ZM6 5C5.44772 5 5 5.44772 5 6V15.5858L7.29289 13.2929L7.87258 12.7132L8.5547 13.1679L10.8726 14.7132L14.7929 10.7929L15.4171 10.1687L16.1139 10.7106L19 12.9554V6C19 5.44772 18.5523 5 18 5H6ZM19 15.4891L15.5829 12.8313L11.7071 16.7071L11.1274 17.2868L10.4453 16.8321L8.12742 15.2868L5.0633 18.3509C5.20542 18.7301 5.57119 19 6 19H18C18.5523 19 19 18.5523 19 18V15.4891ZM10 8.5C10 9.32843 9.32843 10 8.5 10C7.67157 10 7 9.32843 7 8.5C7 7.67157 7.67157 7 8.5 7C9.32843 7 10 7.67157 10 8.5Z" fill="#333333"/>
</svg>
